<svg version="1.1" viewBox="0.0 0.0 771.6062992125984 200.28608923884514" fill="none" stroke="none" stroke-linecap="square" stroke-miterlimit="10" xmlns:xlink="http://www.w3.org/1999/xlink" xmlns="http://www.w3.org/2000/svg"><clipPath id="p.0"><path d="m0 0l771.6063 0l0 200.28609l-771.6063 0l0 -200.28609z" clip-rule="nonzero"/></clipPath><g clip-path="url(#p.0)"><path fill="#000000" fill-opacity="0.0" d="m0 0l771.6063 0l0 200.28609l-771.6063 0z" fill-rule="evenodd"/><path fill="#6aa84f" d="m708.2257 62.122047l0 0c0 45.357025 -52.38275 87.143425 -136.81842 109.14179c-84.4357 21.998367 -187.63025 20.745163 -269.53363 -3.2732391c-81.90338 -24.018402 -129.6203 -67.020424 -124.63167 -112.316864l18.93512 0.4602089c-5.0789795 38.489998 38.97702 75.12427 115.02199 95.64523c76.04495 20.52098 172.06589 21.686905 250.69269 3.0440369c78.62689 -18.642883 127.43872 -54.14949 127.43872 -92.701164z" fill-rule="evenodd"/><path stroke="#6aa84f" stroke-width="1.0" stroke-linejoin="round" stroke-linecap="butt" d="m708.2257 62.122047l0 0c0 45.357025 -52.38275 87.143425 -136.81842 109.14179c-84.4357 21.998367 -187.63025 20.745163 -269.53363 -3.2732391c-81.90338 -24.018402 -129.6203 -67.020424 -124.63167 -112.316864l18.93512 0.4602089c-5.0789795 38.489998 38.97702 75.12427 115.02199 95.64523c76.04495 20.52098 172.06589 21.686905 250.69269 3.0440369c78.62689 -18.642883 127.43872 -54.14949 127.43872 -92.701164z" fill-rule="evenodd"/><path fill="#3c78d8" d="m133.95538 56.396324l0 0c0 -21.934837 17.386856 -39.716534 38.83464 -39.716534l0 0c10.299591 0 20.177338 4.184408 27.46025 11.632704c7.282898 7.4482937 11.37439 17.550352 11.37439 28.08383l0 0c0 21.934837 -17.386856 39.716537 -38.83464 39.716537l0 0c-21.447784 0 -38.83464 -17.7817 -38.83464 -39.716537z" fill-rule="evenodd"/><path stroke="#6aa84f" stroke-width="8.0" stroke-linejoin="round" stroke-linecap="butt" d="m133.95538 56.396324l0 0c0 -21.934837 17.386856 -39.716534 38.83464 -39.716534l0 0c10.299591 0 20.177338 4.184408 27.46025 11.632704c7.282898 7.4482937 11.37439 17.550352 11.37439 28.08383l0 0c0 21.934837 -17.386856 39.716537 -38.83464 39.716537l0 0c-21.447784 0 -38.83464 -17.7817 -38.83464 -39.716537z" fill-rule="evenodd"/><path fill="#3c78d8" d="m216.86351 52.475067l192.88188 0l0 7.842518l-192.88188 0z" fill-rule="evenodd"/><path stroke="#6aa84f" stroke-width="8.0" stroke-linejoin="round" stroke-linecap="butt" d="m216.86351 52.475067l192.88188 0l0 7.842518l-192.88188 0z" fill-rule="evenodd"/><path fill="#3c78d8" d="m409.7454 56.396324l0 0c0 -21.934837 17.386871 -39.716534 38.834656 -39.716534l0 0c10.299591 0 20.177338 4.184408 27.460236 11.632704c7.2829285 7.4482937 11.37442 17.550352 11.37442 28.08383l0 0c0 21.934837 -17.386871 39.716537 -38.834656 39.716537l0 0c-21.447784 0 -38.834656 -17.7817 -38.834656 -39.716537z" fill-rule="evenodd"/><path stroke="#6aa84f" stroke-width="8.0" stroke-linejoin="round" stroke-linecap="butt" d="m409.7454 56.396324l0 0c0 -21.934837 17.386871 -39.716534 38.834656 -39.716534l0 0c10.299591 0 20.177338 4.184408 27.460236 11.632704c7.2829285 7.4482937 11.37442 17.550352 11.37442 28.08383l0 0c0 21.934837 -17.386871 39.716537 -38.834656 39.716537l0 0c-21.447784 0 -38.834656 -17.7817 -38.834656 -39.716537z" fill-rule="evenodd"/><path fill="#3c78d8" d="m680.2966 56.396324l0 0c0 -21.934837 17.386902 -39.716534 38.834656 -39.716534l0 0c10.299622 0 20.177368 4.184408 27.460266 11.632704c7.282898 7.4482937 11.37439 17.550352 11.37439 28.08383l0 0c0 21.934837 -17.38684 39.716537 -38.834656 39.716537l0 0c-21.447754 0 -38.834656 -17.7817 -38.834656 -39.716537z" fill-rule="evenodd"/><path stroke="#6aa84f" stroke-width="8.0" stroke-linejoin="round" stroke-linecap="butt" d="m680.2966 56.396324l0 0c0 -21.934837 17.386902 -39.716534 38.834656 -39.716534l0 0c10.299622 0 20.177368 4.184408 27.460266 11.632704c7.282898 7.4482937 11.37439 17.550352 11.37439 28.08383l0 0c0 21.934837 -17.38684 39.716537 -38.834656 39.716537l0 0c-21.447754 0 -38.834656 -17.7817 -38.834656 -39.716537z" fill-rule="evenodd"/><path fill="#3c78d8" d="m487.4147 52.475067l192.88187 0l0 7.842518l-192.88187 0z" fill-rule="evenodd"/><path stroke="#6aa84f" stroke-width="8.0" stroke-linejoin="round" stroke-linecap="butt" d="m487.4147 52.475067l192.88187 0l0 7.842518l-192.88187 0z" fill-rule="evenodd"/><path fill="#000000" fill-opacity="0.0" d="m151.62466 29.514435l42.33072 0l0 53.76378l-42.33072 0z" fill-rule="evenodd"/><path fill="#ffffff" d="m162.07127 68.116325l8.796875 -22.90625l3.265625 0l9.375 22.90625l-3.453125 0l-2.671875 -6.9375l-9.578125 0l-2.515625 6.9375l-3.21875 0zm6.609375 -9.40625l7.765625 0l-2.390625 -6.34375q-1.09375 -2.890625 -1.625 -4.75q-0.4375 2.203125 -1.234375 4.375l-2.515625 6.71875z" fill-rule="nonzero"/><path fill="#000000" fill-opacity="0.0" d="m427.4147 29.514435l42.33069 0l0 53.76378l-42.33069 0z" fill-rule="evenodd"/><path fill="#ffffff" d="m440.25192 68.116325l0 -22.90625l8.59375 0q2.625 0 4.203125 0.703125q1.59375 0.6875 2.484375 2.140625q0.90625 1.4375 0.90625 3.015625q0 1.46875 -0.796875 2.765625q-0.796875 1.296875 -2.40625 2.09375q2.078125 0.609375 3.1875 2.078125q1.125 1.46875 1.125 3.46875q0 1.609375 -0.6875 3.0q-0.671875 1.375 -1.671875 2.125q-1.0 0.75 -2.515625 1.140625q-1.5 0.375 -3.6875 0.375l-8.734375 0zm3.03125 -13.28125l4.953125 0q2.015625 0 2.890625 -0.265625q1.15625 -0.34375 1.734375 -1.140625q0.59375 -0.796875 0.59375 -2.0q0 -1.140625 -0.546875 -2.0q-0.546875 -0.875 -1.5625 -1.1875q-1.015625 -0.328125 -3.484375 -0.328125l-4.578125 0l0 6.921875zm0 10.578125l5.703125 0q1.46875 0 2.0625 -0.109375q1.046875 -0.1875 1.75 -0.625q0.703125 -0.4375 1.15625 -1.265625q0.453125 -0.84375 0.453125 -1.9375q0 -1.28125 -0.65625 -2.21875q-0.65625 -0.953125 -1.828125 -1.328125q-1.15625 -0.390625 -3.34375 -0.390625l-5.296875 0l0 7.875z" fill-rule="nonzero"/><path fill="#000000" fill-opacity="0.0" d="m697.9659 29.514435l42.33069 0l0 53.76378l-42.33069 0z" fill-rule="evenodd"/><path fill="#ffffff" d="m726.38904 60.085075l3.03125 0.765625q-0.953125 3.734375 -3.4375 5.703125q-2.46875 1.953125 -6.046875 1.953125q-3.703125 0 -6.03125 -1.5q-2.3125 -1.515625 -3.53125 -4.375q-1.203125 -2.859375 -1.203125 -6.140625q0 -3.578125 1.359375 -6.234375q1.375 -2.671875 3.890625 -4.046875q2.53125 -1.390625 5.5625 -1.390625q3.4375 0 5.78125 1.75q2.34375 1.75 3.265625 4.921875l-2.984375 0.703125q-0.796875 -2.5 -2.3125 -3.640625q-1.515625 -1.140625 -3.8125 -1.140625q-2.640625 0 -4.421875 1.265625q-1.765625 1.265625 -2.484375 3.40625q-0.71875 2.125 -0.71875 4.390625q0 2.921875 0.84375 5.109375q0.859375 2.171875 2.65625 3.25q1.796875 1.078125 3.890625 1.078125q2.546875 0 4.3125 -1.46875q1.765625 -1.46875 2.390625 -4.359375z" fill-rule="nonzero"/><path fill="#000000" fill-opacity="0.0" d="m64.57467 55.788994c4.066269 -6.307392 14.881294 -34.23617 24.397636 -37.844345c9.51635 -3.6081762 27.250359 13.496077 32.70043 16.195292" fill-rule="evenodd"/><path stroke="#a64d79" stroke-width="4.0" stroke-linejoin="round" stroke-linecap="butt" d="m64.57467 55.788994c4.066269 -6.307392 14.881294 -34.23617 24.397636 -37.844345c9.51635 -3.6081762 27.250359 13.496077 32.70043 16.195292" fill-rule="evenodd"/><path fill="#000000" fill-opacity="0.0" d="m110.37378 26.50979l18.342651 13.334349" fill-rule="evenodd"/><path stroke="#a64d79" stroke-width="3.0" stroke-linejoin="round" stroke-linecap="butt" d="m110.37378 26.50979l10.026588 7.288912" fill-rule="evenodd"/><path fill="#a64d79" stroke="#a64d79" stroke-width="3.0" stroke-linecap="butt" d="m120.40037 33.798702l-4.7126694 0.7450981l9.481323 2.7215195l-5.513756 -8.179283z" fill-rule="evenodd"/><path fill="#000000" fill-opacity="0.0" d="m3.6141732 53.643044l125.10236 0l0 44.377953l-125.10236 0z" fill-rule="evenodd"/><path fill="#000000" d="m15.343089 84.37202l0 -17.1875l5.906251 0q2.015625 0 3.0625 0.25q1.484375 0.34375 2.515625 1.234375q1.359375 1.140625 2.03125 2.9375q0.6875 1.78125 0.6875 4.078125q0 1.953125 -0.46875 3.46875q-0.453125 1.515625 -1.171875 2.515625q-0.703125 0.984375 -1.5625 1.546875q-0.84375 0.5625 -2.046875 0.859375q-1.203125 0.296875 -2.765625 0.296875l-6.187501 0zm2.265626 -2.03125l3.671875 0q1.703125 0 2.65625 -0.3125q0.96875 -0.3125 1.546875 -0.890625q0.8125 -0.8125 1.265625 -2.171875q0.453125 -1.375 0.453125 -3.3125q0 -2.703125 -0.890625 -4.140625q-0.890625 -1.453125 -2.15625 -1.9375q-0.90625 -0.359375 -2.9375 -0.359375l-3.609375 0l0 13.125zm15.175781 2.03125l0 -17.1875l11.59375 0l0 2.03125l-9.3125 0l0 5.328125l8.0625 0l0 2.015625l-8.0625 0l0 7.8125l-2.28125 0zm13.769531 -5.515625l2.140625 -0.1875q0.15625 1.28125 0.703125 2.109375q0.5625 0.828125 1.734375 1.34375q1.171875 0.5 2.640625 0.5q1.296875 0 2.296875 -0.375q1.0 -0.390625 1.484375 -1.0625q0.484375 -0.6875 0.484375 -1.484375q0 -0.796875 -0.46875 -1.40625q-0.46875 -0.609375 -1.546875 -1.015625q-0.6875 -0.265625 -3.0625 -0.828125q-2.359375 -0.578125 -3.3125 -1.078125q-1.234375 -0.640625 -1.84375 -1.59375q-0.59375 -0.96875 -0.59375 -2.140625q0 -1.3125 0.734375 -2.4375q0.75 -1.125 2.15625 -1.703125q1.421875 -0.59375 3.15625 -0.59375q1.90625 0 3.359375 0.609375q1.46875 0.609375 2.25 1.8125q0.796875 1.1875 0.84375 2.703125l-2.171875 0.171875q-0.171875 -1.640625 -1.1875 -2.46875q-1.015625 -0.828125 -3.0 -0.828125q-2.0625 0 -3.015625 0.765625q-0.9375 0.75 -0.9375 1.8125q0 0.921875 0.671875 1.515625q0.65625 0.609375 3.421875 1.234375q2.78125 0.625 3.8125 1.09375q1.5 0.6875 2.203125 1.75q0.71875 1.0625 0.71875 2.4375q0 1.375 -0.78125 2.59375q-0.78125 1.203125 -2.25 1.890625q-1.46875 0.671875 -3.3125 0.671875q-2.328125 0 -3.90625 -0.671875q-1.578125 -0.6875 -2.484375 -2.046875q-0.890625 -1.375 -0.9375 -3.09375zm23.488277 5.515625l0 -17.1875l7.609375 0q2.296875 0 3.484375 0.46875q1.203125 0.46875 1.921875 1.640625q0.71875 1.171875 0.71875 2.578125q0 1.828125 -1.1875 3.09375q-1.1875 1.25 -3.65625 1.59375q0.90625 0.421875 1.375 0.84375q1.0 0.921875 1.890625 2.296875l2.984375 4.671875l-2.859375 0l-2.28125 -3.578125q-0.984375 -1.546875 -1.640625 -2.359375q-0.640625 -0.828125 -1.15625 -1.15625q-0.5 -0.328125 -1.03125 -0.453125q-0.390625 -0.078125 -1.265625 -0.078125l-2.640625 0l0 7.625l-2.265625 0zm2.265625 -9.59375l4.890625 0q1.5625 0 2.4375 -0.328125q0.875 -0.328125 1.328125 -1.03125q0.46875 -0.703125 0.46875 -1.546875q0 -1.21875 -0.890625 -2.0q-0.875 -0.78125 -2.796875 -0.78125l-5.4375 0l0 5.6875zm13.972656 3.375q0 -3.46875 1.921875 -5.125q1.609375 -1.390625 3.921875 -1.390625q2.5625 0 4.1875 1.6875q1.625 1.6875 1.625 4.640625q0 2.40625 -0.71875 3.78125q-0.71875 1.375 -2.09375 2.140625q-1.375 0.765625 -3.0 0.765625q-2.625 0 -4.234375 -1.671875q-1.609375 -1.6875 -1.609375 -4.828125zm2.171875 0q0 2.390625 1.03125 3.578125q1.046875 1.1875 2.640625 1.1875q1.5625 0 2.609375 -1.1875q1.046875 -1.203125 1.046875 -3.65625q0 -2.3125 -1.0625 -3.5q-1.046875 -1.1875 -2.59375 -1.1875q-1.59375 0 -2.640625 1.1875q-1.03125 1.1875 -1.03125 3.578125zm11.175781 0q0 -3.46875 1.921875 -5.125q1.609375 -1.390625 3.921875 -1.390625q2.5625 0 4.1875 1.6875q1.625 1.6875 1.625 4.640625q0 2.40625 -0.71875 3.78125q-0.71875 1.375 -2.09375 2.140625q-1.375 0.765625 -3.0 0.765625q-2.625 0 -4.234375 -1.671875q-1.609375 -1.6875 -1.609375 -4.828125zm2.171875 0q0 2.390625 1.03125 3.578125q1.046875 1.1875 2.640625 1.1875q1.5625 0 2.609375 -1.1875q1.046875 -1.203125 1.046875 -3.65625q0 -2.3125 -1.0625 -3.5q-1.046875 -1.1875 -2.59375 -1.1875q-1.59375 0 -2.640625 1.1875q-1.03125 1.1875 -1.03125 3.578125zm16.566406 4.328125l0.3125 1.859375q-0.890625 0.203125 -1.59375 0.203125q-1.15625 0 -1.796875 -0.359375q-0.625 -0.375 -0.890625 -0.96875q-0.25 -0.59375 -0.25 -2.484375l0 -7.171875l-1.546875 0l0 -1.640625l1.546875 0l0 -3.078125l2.09375 -1.265625l0 4.34375l2.125 0l0 1.640625l-2.125 0l0 7.28125q0 0.90625 0.109375 1.171875q0.125 0.25 0.375 0.40625q0.25 0.140625 0.71875 0.140625q0.34375 0 0.921875 -0.078125z" fill-rule="nonzero"/></g></svg>